<svg width="12.000000" height="14.000000" viewBox="0 0 12 14" fill="none" xmlns="http://www.w3.org/2000/svg" xmlns:xlink="http://www.w3.org/1999/xlink">
	<desc>
			Created with Pixso.
	</desc>
	<defs/>
	<path id="矢量 52" d="M2.27 9.79L9.03 2.68L8.09 1.69L1.33 8.8L1.33 9.79L2.27 9.79ZM2.82 11.19L0 11.19L0 8.22L7.62 0.2C7.74 0.07 7.91 0 8.09 0C8.27 0 8.44 0.07 8.56 0.2L10.45 2.18C10.57 2.31 10.64 2.49 10.64 2.68C10.64 2.86 10.57 3.04 10.45 3.17L2.82 11.19L2.82 11.19ZM0 12.59L12 12.59L12 14L0 14L0 12.59Z" fill="#FFFFFF" fill-opacity="1.000000" fill-rule="evenodd"/>
</svg>
