<svg width="12.000000" height="14.000000" viewBox="0 0 12 14" fill="none" xmlns="http://www.w3.org/2000/svg" xmlns:xlink="http://www.w3.org/1999/xlink">
	<desc>
			Created with Pixso.
	</desc>
	<defs/>
	<path id="Vector" d="M6.87 4.98L8.2 4.98L8.2 10.5L6.87 10.5L6.87 4.98Z" fill="#808080" fill-opacity="1.000000" fill-rule="evenodd"/>
	<path id="Vector" d="M4.13 4.98L5.46 4.98L5.46 10.5L4.13 10.5L4.13 4.98Z" fill="#808080" fill-opacity="1.000000" fill-rule="evenodd"/>
	<path id="Vector" d="M12 2.16C11.99 2.03 11.95 1.89 11.87 1.78C11.79 1.68 11.68 1.6 11.55 1.56C11.5 1.53 11.44 1.52 11.38 1.51L7.96 1.51C7.84 1.07 7.57 0.69 7.22 0.42C6.86 0.14 6.43 0 5.99 0C5.55 0 5.12 0.14 4.77 0.42C4.41 0.69 4.15 1.07 4.02 1.51L0.61 1.51C0.55 1.51 0.5 1.52 0.44 1.54L0.43 1.54C0.3 1.58 0.18 1.67 0.1 1.79C0.02 1.91 -0.01 2.05 0 2.2C0.01 2.34 0.06 2.48 0.16 2.59C0.25 2.69 0.38 2.76 0.52 2.79L1.2 12.53C1.21 12.91 1.36 13.27 1.61 13.54C1.87 13.81 2.21 13.97 2.58 14L9.41 14C9.77 13.98 10.12 13.81 10.37 13.54C10.63 13.27 10.77 12.91 10.79 12.53L11.47 2.79C11.61 2.77 11.75 2.7 11.84 2.58C11.94 2.46 12 2.32 12 2.16ZM5.99 1.21C6.12 1.21 6.24 1.24 6.35 1.29C6.47 1.34 6.57 1.42 6.66 1.51L5.33 1.51C5.41 1.42 5.52 1.34 5.63 1.29C5.74 1.24 5.87 1.21 5.99 1.21ZM9.41 12.79L2.58 12.79C2.5 12.79 2.37 12.65 2.36 12.44L1.69 2.81L10.3 2.81L9.62 12.44C9.61 12.65 9.49 12.79 9.41 12.79Z" fill="#808080" fill-opacity="1.000000" fill-rule="nonzero"/>
</svg>
